<?xml version="1.0" encoding="UTF-8" standalone="no"?>
<!-- Created with Inkscape (http://www.inkscape.org/) -->

<svg
   version="1.1"
   id="svg1"
   width="2400"
   height="658.32001"
   viewBox="0 0 2400 658.32001"
   sodipodi:docname="sg-logo-white-v1.1.eps"
   xmlns:inkscape="http://www.inkscape.org/namespaces/inkscape"
   xmlns:sodipodi="http://sodipodi.sourceforge.net/DTD/sodipodi-0.dtd"
   xmlns="http://www.w3.org/2000/svg"
   xmlns:svg="http://www.w3.org/2000/svg">
  <defs
     id="defs1" />
  <sodipodi:namedview
     id="namedview1"
     pagecolor="#ffffff"
     bordercolor="#000000"
     borderopacity="0.25"
     inkscape:showpageshadow="2"
     inkscape:pageopacity="0.0"
     inkscape:pagecheckerboard="0"
     inkscape:deskcolor="#d1d1d1">
    <inkscape:page
       x="0"
       y="0"
       inkscape:label="1"
       id="page1"
       width="2400"
       height="658.32001"
       margin="0"
       bleed="0" />
  </sodipodi:namedview>
  <g
     id="g1"
     inkscape:groupmode="layer"
     inkscape:label="1">
    <g
       id="group-R5">
      <path
         id="path2"
         d="m 4834.43,681.922 c -28.16,58.988 -86.67,91.75 -144.01,91.75 -93.19,0 -161.32,-84.141 -161.32,-223.891 0,-138.633 68.13,-209.621 145.11,-209.621 78.98,0 138.58,65.512 160.22,132.129 z m 102.87,-390.93 h -41.14 c -42.23,0 -60.64,36.078 -60.64,78.668 v 14.192 c -21.69,-53.532 -95.31,-102.704 -166.8,-102.704 -147.24,0 -211.1,128.883 -211.1,264.344 0,179.008 102.87,282.75 228.47,282.75 51.92,0 112.63,-21.812 148.34,-68.762 l 1.09,40.372 c 0,13.089 7.56,17.449 19.51,17.449 h 32.48 c 11.88,0 16.21,-6.512 16.21,-19.602 V 414.402 c 0,-30.55 0,-51.32 4.32,-60.043 4.33,-9.839 11.95,-13.097 22.8,-13.097 h 7.56 c 8.65,0 11.88,-2.211 11.88,-12.051 v -27.219 c 0,-8.781 -3.23,-11 -12.98,-11"
         style="fill:#ffffff;fill-opacity:1;fill-rule:nonzero;stroke:none"
         transform="matrix(0.13333333,0,0,-0.13333333,0,658.32)" />
      <path
         id="path3"
         d="m 4834.43,681.922 c -28.16,58.988 -86.67,91.75 -144.01,91.75 -93.19,0 -161.32,-84.141 -161.32,-223.891 0,-138.633 68.13,-209.621 145.11,-209.621 78.98,0 138.58,65.512 160.22,132.129 z m 102.87,-390.93 h -41.14 c -42.23,0 -60.64,36.078 -60.64,78.668 v 14.192 c -21.69,-53.532 -95.31,-102.704 -166.8,-102.704 -147.24,0 -211.1,128.883 -211.1,264.344 0,179.008 102.87,282.75 228.47,282.75 51.92,0 112.63,-21.812 148.34,-68.762 l 1.09,40.372 c 0,13.089 7.56,17.449 19.51,17.449 h 32.48 c 11.88,0 16.21,-6.512 16.21,-19.602 V 414.402 c 0,-30.55 0,-51.32 4.32,-60.043 4.33,-9.839 11.95,-13.097 22.8,-13.097 h 7.56 c 8.65,0 11.88,-2.211 11.88,-12.051 v -27.219 c 0,-8.781 -3.23,-11 -12.98,-11"
         style="fill:#ffffff;fill-opacity:1;fill-rule:nonzero;stroke:none"
         transform="matrix(0.13333333,0,0,-0.13333333,0,658.32)" />
      <path
         id="path4"
         d="M 5390,311.781 C 5346.67,291 5295.78,281.16 5250.32,281.16 c -171.13,0 -247.98,115.801 -247.98,275.211 0,154.988 93.12,271.879 252.31,271.879 45.45,0 101.77,-14.191 135.35,-32.82 6.53,-3.258 9.75,-7.621 9.75,-11.981 0,-2.219 -1.1,-5.469 -2.2,-8.66 l -6.45,-19.668 c -2.2,-5.539 -4.33,-12.039 -10.85,-12.039 -2.13,0 -4.33,1.098 -7.56,2.207 -34.68,16.34 -73.68,29.5 -119.14,29.5 -108.24,0 -179.72,-84.137 -179.72,-216.269 0,-114.68 46.56,-224.93 176.49,-224.93 46.56,0 93.12,12.051 125.6,26.25 3.23,1.109 5.42,2.14 7.55,2.14 5.43,0 9.75,-4.359 10.85,-9.828 l 5.43,-19.672 c 1.1,-3.25 1.1,-6.511 1.1,-8.73 0,-5.469 -3.3,-8.719 -10.85,-11.969"
         style="fill:#ffffff;fill-opacity:1;fill-rule:nonzero;stroke:none"
         transform="matrix(0.13333333,0,0,-0.13333333,0,658.32)" />
      <path
         id="path5"
         d="M 5390,311.781 C 5346.67,291 5295.78,281.16 5250.32,281.16 c -171.13,0 -247.98,115.801 -247.98,275.211 0,154.988 93.12,271.879 252.31,271.879 45.45,0 101.77,-14.191 135.35,-32.82 6.53,-3.258 9.75,-7.621 9.75,-11.981 0,-2.219 -1.1,-5.469 -2.2,-8.66 l -6.45,-19.668 c -2.2,-5.539 -4.33,-12.039 -10.85,-12.039 -2.13,0 -4.33,1.098 -7.56,2.207 -34.68,16.34 -73.68,29.5 -119.14,29.5 -108.24,0 -179.72,-84.137 -179.72,-216.269 0,-114.68 46.56,-224.93 176.49,-224.93 46.56,0 93.12,12.051 125.6,26.25 3.23,1.109 5.42,2.14 7.55,2.14 5.43,0 9.75,-4.359 10.85,-9.828 l 5.43,-19.672 c 1.1,-3.25 1.1,-6.511 1.1,-8.73 0,-5.469 -3.3,-8.719 -10.85,-11.969"
         style="fill:#ffffff;fill-opacity:1;fill-rule:nonzero;stroke:none"
         transform="matrix(0.13333333,0,0,-0.13333333,0,658.32)" />
      <path
         id="path6"
         d="M 5825.34,311.781 C 5782,291 5731.12,281.16 5685.66,281.16 c -171.14,0 -247.98,115.801 -247.98,275.211 0,154.988 93.12,271.879 252.3,271.879 45.47,0 101.78,-14.191 135.36,-32.82 6.52,-3.258 9.75,-7.621 9.75,-11.981 0,-2.219 -1.1,-5.469 -2.2,-8.66 l -6.45,-19.668 c -2.2,-5.539 -4.33,-12.039 -10.85,-12.039 -2.13,0 -4.33,1.098 -7.56,2.207 -34.68,16.34 -73.68,29.5 -119.15,29.5 -108.22,0 -179.71,-84.137 -179.71,-216.269 0,-114.68 46.56,-224.93 176.49,-224.93 46.56,0 93.12,12.051 125.6,26.25 3.23,1.109 5.43,2.14 7.56,2.14 5.42,0 9.75,-4.359 10.84,-9.828 l 5.43,-19.672 c 1.1,-3.25 1.1,-6.511 1.1,-8.73 0,-5.469 -3.3,-8.719 -10.85,-11.969"
         style="fill:#ffffff;fill-opacity:1;fill-rule:nonzero;stroke:none"
         transform="matrix(0.13333333,0,0,-0.13333333,0,658.32)" />
      <path
         id="path7"
         d="M 5825.34,311.781 C 5782,291 5731.12,281.16 5685.66,281.16 c -171.14,0 -247.98,115.801 -247.98,275.211 0,154.988 93.12,271.879 252.3,271.879 45.47,0 101.78,-14.191 135.36,-32.82 6.52,-3.258 9.75,-7.621 9.75,-11.981 0,-2.219 -1.1,-5.469 -2.2,-8.66 l -6.45,-19.668 c -2.2,-5.539 -4.33,-12.039 -10.85,-12.039 -2.13,0 -4.33,1.098 -7.56,2.207 -34.68,16.34 -73.68,29.5 -119.15,29.5 -108.22,0 -179.71,-84.137 -179.71,-216.269 0,-114.68 46.56,-224.93 176.49,-224.93 46.56,0 93.12,12.051 125.6,26.25 3.23,1.109 5.43,2.14 7.56,2.14 5.42,0 9.75,-4.359 10.84,-9.828 l 5.43,-19.672 c 1.1,-3.25 1.1,-6.511 1.1,-8.73 0,-5.469 -3.3,-8.719 -10.85,-11.969"
         style="fill:#ffffff;fill-opacity:1;fill-rule:nonzero;stroke:none"
         transform="matrix(0.13333333,0,0,-0.13333333,0,658.32)" />
      <path
         id="path8"
         d="m 6113.41,774.75 c -128.89,0 -168.86,-115.789 -168.86,-217.25 0,-107.129 36.81,-223.879 163.44,-223.879 125.61,0 170.03,110.25 170.03,219.531 0,108.02 -41.13,221.598 -164.61,221.598 m -6.52,-493.559 c -162.34,0 -233.83,120.09 -233.83,274.11 0,151.719 84.47,272.98 240.35,272.98 162.42,0 236.1,-115.789 236.1,-272.98 0,-152.981 -85.56,-274.11 -242.62,-274.11"
         style="fill:#ffffff;fill-opacity:1;fill-rule:nonzero;stroke:none"
         transform="matrix(0.13333333,0,0,-0.13333333,0,658.32)" />
      <path
         id="path9"
         d="m 6113.41,774.75 c -128.89,0 -168.86,-115.789 -168.86,-217.25 0,-107.129 36.81,-223.879 163.44,-223.879 125.61,0 170.03,110.25 170.03,219.531 0,108.02 -41.13,221.598 -164.61,221.598 z m -6.52,-493.559 c -162.34,0 -233.83,120.09 -233.83,274.11 0,151.719 84.47,272.98 240.35,272.98 162.42,0 236.1,-115.789 236.1,-272.98 0,-152.981 -85.56,-274.11 -242.62,-274.11"
         style="fill:#ffffff;fill-opacity:1;fill-rule:nonzero;stroke:none"
         transform="matrix(0.13333333,0,0,-0.13333333,0,658.32)" />
      <path
         id="path10"
         d="m 6837.9,291.012 h -33.58 c -11.89,0 -17.31,6.578 -17.31,19.668 l -1.1,38.218 c -49.79,-44.867 -108.3,-67.726 -170.03,-67.726 -54.12,0 -94.15,16.418 -122.38,43.707 -34.61,34.902 -48.69,87.32 -48.69,154.98 v 317.789 c 0,13.161 5.43,19.602 17.37,19.602 h 34.62 c 11.95,0 17.37,-6.441 17.37,-19.602 V 489.691 c 0,-53.461 8.65,-93.91 31.38,-120.082 16.21,-18.558 46.57,-31.718 87.63,-31.718 51.99,0 117.02,36.089 152.73,72.089 v 387.668 c 0,13.161 5.42,19.602 17.31,19.602 h 34.68 c 11.88,0 17.3,-6.441 17.3,-19.602 V 310.68 c 0,-13.09 -5.42,-19.668 -17.3,-19.668"
         style="fill:#ffffff;fill-opacity:1;fill-rule:nonzero;stroke:none"
         transform="matrix(0.13333333,0,0,-0.13333333,0,658.32)" />
      <path
         id="path11"
         d="m 6837.9,291.012 h -33.58 c -11.89,0 -17.31,6.578 -17.31,19.668 l -1.1,38.218 c -49.79,-44.867 -108.3,-67.726 -170.03,-67.726 -54.12,0 -94.15,16.418 -122.38,43.707 -34.61,34.902 -48.69,87.32 -48.69,154.98 v 317.789 c 0,13.161 5.43,19.602 17.37,19.602 h 34.62 c 11.95,0 17.37,-6.441 17.37,-19.602 V 489.691 c 0,-53.461 8.65,-93.91 31.38,-120.082 16.21,-18.558 46.57,-31.718 87.63,-31.718 51.99,0 117.02,36.089 152.73,72.089 v 387.668 c 0,13.161 5.42,19.602 17.31,19.602 h 34.68 c 11.88,0 17.3,-6.441 17.3,-19.602 V 310.68 c 0,-13.09 -5.42,-19.668 -17.3,-19.668"
         style="fill:#ffffff;fill-opacity:1;fill-rule:nonzero;stroke:none"
         transform="matrix(0.13333333,0,0,-0.13333333,0,658.32)" />
      <path
         id="path12"
         d="m 7382.61,291.012 h -34.68 c -11.88,0 -17.3,6.578 -17.3,19.668 v 311.14 c 0,87.399 -20.6,151.809 -120.18,151.809 -54.18,0 -121.28,-31.649 -162.41,-69.887 V 310.68 c 0,-13.09 -5.43,-19.668 -17.31,-19.668 h -34.68 c -11.95,0 -17.3,6.578 -17.3,19.668 v 486.968 c 0,13.161 5.35,19.602 17.3,19.602 h 33.58 c 11.89,0 17.31,-6.441 17.31,-19.602 l 1.1,-37.117 c 49.72,44.739 119.08,67.731 180.81,67.731 126.7,0 171.07,-77.563 171.07,-196.61 V 310.68 c 0,-13.09 -5.43,-19.668 -17.31,-19.668"
         style="fill:#ffffff;fill-opacity:1;fill-rule:nonzero;stroke:none"
         transform="matrix(0.13333333,0,0,-0.13333333,0,658.32)" />
      <path
         id="path13"
         d="m 7382.61,291.012 h -34.68 c -11.88,0 -17.3,6.578 -17.3,19.668 v 311.14 c 0,87.399 -20.6,151.809 -120.18,151.809 -54.18,0 -121.28,-31.649 -162.41,-69.887 V 310.68 c 0,-13.09 -5.43,-19.668 -17.31,-19.668 h -34.68 c -11.95,0 -17.3,6.578 -17.3,19.668 v 486.968 c 0,13.161 5.35,19.602 17.3,19.602 h 33.58 c 11.89,0 17.31,-6.441 17.31,-19.602 l 1.1,-37.117 c 49.72,44.739 119.08,67.731 180.81,67.731 126.7,0 171.07,-77.563 171.07,-196.61 V 310.68 c 0,-13.09 -5.43,-19.668 -17.31,-19.668"
         style="fill:#ffffff;fill-opacity:1;fill-rule:nonzero;stroke:none"
         transform="matrix(0.13333333,0,0,-0.13333333,0,658.32)" />
      <path
         id="path14"
         d="m 7777.92,297.57 c -20.6,-7.621 -56.31,-16.422 -88.79,-16.422 -42.23,0 -87.7,12.063 -111.53,37.122 -30.28,31.652 -32.48,76.531 -32.48,136.511 v 311.211 h -63.93 c -9.69,0 -11.89,2.219 -11.89,10.949 v 29.489 c 0,9.761 2.2,10.879 9.76,10.879 h 66.06 V 945.07 c 0,13.09 2.2,17.45 14.08,19.672 l 37.84,5.469 h 1.1 3.29 c 8.65,0 12.98,-6.57 12.98,-17.52 V 817.309 h 131.03 c 8.65,0 11.88,-2.219 11.88,-12.047 v -28.321 c 0,-8.73 -3.23,-10.949 -12.98,-10.949 h -129.93 v -322.16 c 0,-38.152 3.3,-68.691 21.63,-87.32 12.98,-13.09 33.59,-20.711 63.94,-20.711 24.86,0 51.98,7.621 67.09,11.98 3.3,1.11 6.53,1.11 8.65,1.11 6.53,0 6.53,-3.262 7.63,-7.621 l 5.42,-27.278 v -4.441 c 0,-5.469 -3.29,-8.719 -10.85,-11.981"
         style="fill:#ffffff;fill-opacity:1;fill-rule:nonzero;stroke:none"
         transform="matrix(0.13333333,0,0,-0.13333333,0,658.32)" />
      <path
         id="path15"
         d="m 7777.92,297.57 c -20.6,-7.621 -56.31,-16.422 -88.79,-16.422 -42.23,0 -87.7,12.063 -111.53,37.122 -30.28,31.652 -32.48,76.531 -32.48,136.511 v 311.211 h -63.93 c -9.69,0 -11.89,2.219 -11.89,10.949 v 29.489 c 0,9.761 2.2,10.879 9.76,10.879 h 66.06 V 945.07 c 0,13.09 2.2,17.45 14.08,19.672 l 37.84,5.469 h 1.1 3.29 c 8.65,0 12.98,-6.57 12.98,-17.52 V 817.309 h 131.03 c 8.65,0 11.88,-2.219 11.88,-12.047 v -28.321 c 0,-8.73 -3.23,-10.949 -12.98,-10.949 h -129.93 v -322.16 c 0,-38.152 3.3,-68.691 21.63,-87.32 12.98,-13.09 33.59,-20.711 63.94,-20.711 24.86,0 51.98,7.621 67.09,11.98 3.3,1.11 6.53,1.11 8.65,1.11 6.53,0 6.53,-3.262 7.63,-7.621 l 5.42,-27.278 v -4.441 c 0,-5.469 -3.29,-8.719 -10.85,-11.981"
         style="fill:#ffffff;fill-opacity:1;fill-rule:nonzero;stroke:none"
         transform="matrix(0.13333333,0,0,-0.13333333,0,658.32)" />
      <path
         id="path16"
         d="m 8178.61,681.922 c -28.15,58.988 -86.66,91.75 -144.01,91.75 -93.19,0 -161.31,-84.141 -161.31,-223.891 0,-138.633 68.12,-209.621 145.11,-209.621 78.97,0 138.58,65.512 160.21,132.129 z m 102.87,-390.93 h -41.13 c -42.24,0 -60.64,36.078 -60.64,78.668 v 14.192 c -21.7,-53.532 -95.32,-102.704 -166.81,-102.704 -147.23,0 -211.1,128.883 -211.1,264.344 0,179.008 102.87,282.75 228.48,282.75 51.91,0 112.62,-21.812 148.33,-68.762 l 1.1,40.372 c 0,13.089 7.55,17.449 19.5,17.449 h 32.49 c 11.88,0 16.2,-6.512 16.2,-19.602 V 414.402 c 0,-30.55 0,-51.32 4.33,-60.043 4.32,-9.839 11.95,-13.097 22.8,-13.097 h 7.55 c 8.65,0 11.88,-2.211 11.88,-12.051 v -27.219 c 0,-8.781 -3.23,-11 -12.98,-11"
         style="fill:#ffffff;fill-opacity:1;fill-rule:nonzero;stroke:none"
         transform="matrix(0.13333333,0,0,-0.13333333,0,658.32)" />
      <path
         id="path17"
         d="m 8178.61,681.922 c -28.15,58.988 -86.66,91.75 -144.01,91.75 -93.19,0 -161.31,-84.141 -161.31,-223.891 0,-138.633 68.12,-209.621 145.11,-209.621 78.97,0 138.58,65.512 160.21,132.129 z m 102.87,-390.93 h -41.13 c -42.24,0 -60.64,36.078 -60.64,78.668 v 14.192 c -21.7,-53.532 -95.32,-102.704 -166.81,-102.704 -147.23,0 -211.1,128.883 -211.1,264.344 0,179.008 102.87,282.75 228.48,282.75 51.91,0 112.62,-21.812 148.33,-68.762 l 1.1,40.372 c 0,13.089 7.55,17.449 19.5,17.449 h 32.49 c 11.88,0 16.2,-6.512 16.2,-19.602 V 414.402 c 0,-30.55 0,-51.32 4.33,-60.043 4.32,-9.839 11.95,-13.097 22.8,-13.097 h 7.55 c 8.65,0 11.88,-2.211 11.88,-12.051 v -27.219 c 0,-8.781 -3.23,-11 -12.98,-11"
         style="fill:#ffffff;fill-opacity:1;fill-rule:nonzero;stroke:none"
         transform="matrix(0.13333333,0,0,-0.13333333,0,658.32)" />
      <path
         id="path18"
         d="m 8778.57,291.012 h -34.68 c -11.88,0 -17.3,6.578 -17.3,19.668 v 311.14 c 0,87.399 -20.61,151.809 -120.18,151.809 -54.18,0 -121.28,-31.649 -162.41,-69.887 V 310.68 c 0,-13.09 -5.43,-19.668 -17.31,-19.668 h -34.68 c -11.95,0 -17.31,6.578 -17.31,19.668 v 486.968 c 0,13.161 5.36,19.602 17.31,19.602 h 33.58 c 11.88,0 17.31,-6.441 17.31,-19.602 l 1.1,-37.117 c 49.72,44.739 119.08,67.731 180.81,67.731 126.71,0 171.07,-77.563 171.07,-196.61 V 310.68 c 0,-13.09 -5.43,-19.668 -17.31,-19.668"
         style="fill:#ffffff;fill-opacity:1;fill-rule:nonzero;stroke:none"
         transform="matrix(0.13333333,0,0,-0.13333333,0,658.32)" />
      <path
         id="path19"
         d="m 8778.57,291.012 h -34.68 c -11.88,0 -17.3,6.578 -17.3,19.668 v 311.14 c 0,87.399 -20.61,151.809 -120.18,151.809 -54.18,0 -121.28,-31.649 -162.41,-69.887 V 310.68 c 0,-13.09 -5.43,-19.668 -17.31,-19.668 h -34.68 c -11.95,0 -17.31,6.578 -17.31,19.668 v 486.968 c 0,13.161 5.36,19.602 17.31,19.602 h 33.58 c 11.88,0 17.31,-6.441 17.31,-19.602 l 1.1,-37.117 c 49.72,44.739 119.08,67.731 180.81,67.731 126.71,0 171.07,-77.563 171.07,-196.61 V 310.68 c 0,-13.09 -5.43,-19.668 -17.31,-19.668"
         style="fill:#ffffff;fill-opacity:1;fill-rule:nonzero;stroke:none"
         transform="matrix(0.13333333,0,0,-0.13333333,0,658.32)" />
      <path
         id="path20"
         d="m 9173.86,297.57 c -20.6,-7.621 -56.3,-16.422 -88.79,-16.422 -42.23,0 -87.77,12.063 -111.53,37.122 -30.28,31.652 -32.55,76.531 -32.55,136.511 v 311.211 h -63.86 c -9.69,0 -11.88,2.219 -11.88,10.949 v 29.489 c 0,9.761 2.19,10.879 9.75,10.879 h 65.99 V 945.07 c 0,13.09 2.27,17.45 14.15,19.672 l 37.84,5.469 h 1.09 3.23 c 8.73,0 13.05,-6.57 13.05,-17.52 V 817.309 h 131.03 c 8.66,0 11.88,-2.219 11.88,-12.047 v -28.321 c 0,-8.73 -3.22,-10.949 -12.98,-10.949 h -129.93 v -322.16 c 0,-38.152 3.23,-68.691 21.63,-87.32 12.98,-13.09 33.58,-20.711 63.93,-20.711 24.87,0 52,7.621 67.1,11.98 3.3,1.11 6.53,1.11 8.66,1.11 6.52,0 6.52,-3.262 7.61,-7.621 l 5.43,-27.278 v -4.441 c 0,-5.469 -3.3,-8.719 -10.85,-11.981"
         style="fill:#ffffff;fill-opacity:1;fill-rule:nonzero;stroke:none"
         transform="matrix(0.13333333,0,0,-0.13333333,0,658.32)" />
      <path
         id="path21"
         d="m 9173.86,297.57 c -20.6,-7.621 -56.3,-16.422 -88.79,-16.422 -42.23,0 -87.77,12.063 -111.53,37.122 -30.28,31.652 -32.55,76.531 -32.55,136.511 v 311.211 h -63.86 c -9.69,0 -11.88,2.219 -11.88,10.949 v 29.489 c 0,9.761 2.19,10.879 9.75,10.879 h 65.99 V 945.07 c 0,13.09 2.27,17.45 14.15,19.672 l 37.84,5.469 h 1.09 3.23 c 8.73,0 13.05,-6.57 13.05,-17.52 V 817.309 h 131.03 c 8.66,0 11.88,-2.219 11.88,-12.047 v -28.321 c 0,-8.73 -3.22,-10.949 -12.98,-10.949 h -129.93 v -322.16 c 0,-38.152 3.23,-68.691 21.63,-87.32 12.98,-13.09 33.58,-20.711 63.93,-20.711 24.87,0 52,7.621 67.1,11.98 3.3,1.11 6.53,1.11 8.66,1.11 6.52,0 6.52,-3.262 7.61,-7.621 l 5.43,-27.278 v -4.441 c 0,-5.469 -3.3,-8.719 -10.85,-11.981"
         style="fill:#ffffff;fill-opacity:1;fill-rule:nonzero;stroke:none"
         transform="matrix(0.13333333,0,0,-0.13333333,0,658.32)" />
      <path
         id="path22"
         d="m 9362.31,281.191 c -54.19,0 -109.32,18.559 -137.56,32.758 -6.45,3.25 -9.67,5.473 -9.67,9.832 0,1.11 0,3.25 1.09,5.469 l 12.98,33.871 c 2.19,5.469 3.23,6.5 6.45,6.5 1.11,0 3.3,0 5.5,-1.031 36.74,-18.641 87.63,-32.828 124.43,-32.828 72.59,0 120.25,36.078 120.25,96.047 0,50.273 -36.81,76.453 -90.99,98.339 l -64.97,26.184 c -66.05,26.238 -111.52,67.727 -111.52,132.129 0,88.508 79.04,139.809 173.26,139.809 43.34,0 85.57,-7.61 130.97,-29.5 5.48,-2.149 8.72,-5.54 8.72,-8.79 0,-1.039 -1.11,-2.148 -1.11,-3.179 l -10.78,-30.621 c -2.2,-6.578 -5.42,-8.782 -8.72,-8.782 -2.13,0 -4.32,1.172 -7.55,2.204 -28.16,14.199 -76.91,26.179 -111.53,26.179 -63.94,0 -101.84,-33.801 -101.84,-78.531 0,-45.91 26.03,-65.578 75.81,-86.281 l 76.92,-32.758 c 61.74,-26.242 111.52,-69.949 111.52,-137.602 0,-91.687 -73.61,-159.418 -191.66,-159.418"
         style="fill:#ffffff;fill-opacity:1;fill-rule:nonzero;stroke:none"
         transform="matrix(0.13333333,0,0,-0.13333333,0,658.32)" />
      <path
         id="path23"
         d="m 9362.31,281.191 c -54.19,0 -109.32,18.559 -137.56,32.758 -6.45,3.25 -9.67,5.473 -9.67,9.832 0,1.11 0,3.25 1.09,5.469 l 12.98,33.871 c 2.19,5.469 3.23,6.5 6.45,6.5 1.11,0 3.3,0 5.5,-1.031 36.74,-18.641 87.63,-32.828 124.43,-32.828 72.59,0 120.25,36.078 120.25,96.047 0,50.273 -36.81,76.453 -90.99,98.339 l -64.97,26.184 c -66.05,26.238 -111.52,67.727 -111.52,132.129 0,88.508 79.04,139.809 173.26,139.809 43.34,0 85.57,-7.61 130.97,-29.5 5.48,-2.149 8.72,-5.54 8.72,-8.79 0,-1.039 -1.11,-2.148 -1.11,-3.179 l -10.78,-30.621 c -2.2,-6.578 -5.42,-8.782 -8.72,-8.782 -2.13,0 -4.32,1.172 -7.55,2.204 -28.16,14.199 -76.91,26.179 -111.53,26.179 -63.94,0 -101.84,-33.801 -101.84,-78.531 0,-45.91 26.03,-65.578 75.81,-86.281 l 76.92,-32.758 c 61.74,-26.242 111.52,-69.949 111.52,-137.602 0,-91.687 -73.61,-159.418 -191.66,-159.418"
         style="fill:#ffffff;fill-opacity:1;fill-rule:nonzero;stroke:none"
         transform="matrix(0.13333333,0,0,-0.13333333,0,658.32)" />
      <path
         id="path24"
         d="m 10071.6,999.672 c -50.9,0 -89.87,-39.34 -89.87,-91.762 0,-31.57 23.87,-75.269 53.07,-110.238 l 29.3,-36.09 c 55.2,41.559 98.5,85.258 98.5,144.18 0,52.429 -35.8,93.91 -91,93.91 m -29.2,-317.723 c -72.55,-54.64 -139.65,-109.207 -139.65,-185.668 0,-90.57 73.56,-152.832 154.75,-152.832 80.2,0 146.2,31.641 197.1,80.742 z m 437.4,-384.347 c -4.3,-12.051 -8.6,-14.2 -25.9,-9.832 -45.5,10.878 -110.5,42.519 -162.5,93.902 -63.9,-59 -146.2,-100.481 -251.2,-100.481 -120.21,0 -214.36,85.11 -214.36,205.258 0,110.321 93.05,175.832 182.96,236.91 l -35.73,43.77 c -35.71,43.691 -61.74,84 -61.74,139.75 0,77.492 64.98,146.331 158.07,146.331 93.2,0 159.2,-59.011 159.2,-145.3 0,-76.449 -61.7,-133.16 -132.1,-185.59 l 203.6,-245.711 c 52,74.243 81.2,168.223 88.8,256.653 1.1,11.988 3.2,15.308 11.9,15.308 h 37.9 c 8.6,0 10.8,-3.32 9.7,-14.199 -6.4,-107.062 -44.3,-216.269 -110.4,-301.379 47.6,-47.023 104,-73.203 141.8,-87.39 12,-4.372 15.2,-7.7 10.9,-19.602 l -10.9,-28.398"
         style="fill:#ffffff;fill-opacity:1;fill-rule:nonzero;stroke:none"
         transform="matrix(0.13333333,0,0,-0.13333333,0,658.32)" />
      <path
         id="path25"
         d="m 10071.6,999.672 c -50.9,0 -89.87,-39.34 -89.87,-91.762 0,-31.57 23.87,-75.269 53.07,-110.238 l 29.3,-36.09 c 55.2,41.559 98.5,85.258 98.5,144.18 0,52.429 -35.8,93.91 -91,93.91 z m -29.2,-317.723 c -72.55,-54.64 -139.65,-109.207 -139.65,-185.668 0,-90.57 73.56,-152.832 154.75,-152.832 80.2,0 146.2,31.641 197.1,80.742 z m 437.4,-384.347 c -4.3,-12.051 -8.6,-14.2 -25.9,-9.832 -45.5,10.878 -110.5,42.519 -162.5,93.902 -63.9,-59 -146.2,-100.481 -251.2,-100.481 -120.21,0 -214.36,85.11 -214.36,205.258 0,110.321 93.05,175.832 182.96,236.91 l -35.73,43.77 c -35.71,43.691 -61.74,84 -61.74,139.75 0,77.492 64.98,146.331 158.07,146.331 93.2,0 159.2,-59.011 159.2,-145.3 0,-76.449 -61.7,-133.16 -132.1,-185.59 l 203.6,-245.711 c 52,74.243 81.2,168.223 88.8,256.653 1.1,11.988 3.2,15.308 11.9,15.308 h 37.9 c 8.6,0 10.8,-3.32 9.7,-14.199 -6.4,-107.062 -44.3,-216.269 -110.4,-301.379 47.6,-47.023 104,-73.203 141.8,-87.39 12,-4.372 15.2,-7.7 10.9,-19.602 l -10.9,-28.398"
         style="fill:#ffffff;fill-opacity:1;fill-rule:nonzero;stroke:none"
         transform="matrix(0.13333333,0,0,-0.13333333,0,658.32)" />
      <path
         id="path26"
         d="m 10995.4,772.563 c -55.2,0 -116.9,-33.872 -152.7,-75.352 V 419.789 c 31.5,-49.027 84.4,-84.008 142.9,-84.008 117,0 167.9,98.211 167.9,215.168 0,133.172 -48.7,221.614 -158.1,221.614 m -6.6,-491.415 c -59.5,0 -116.8,31.711 -149.3,70.981 l -1.1,-41.477 c 0,-15.312 -5.4,-19.672 -20.6,-19.672 h -27.1 c -11.9,0 -17.3,3.329 -17.3,16.418 v 732.672 c 0,13.1 2.2,17.45 14,19.67 l 38,5.47 h 1.1 3.2 c 8.7,0 13,-6.51 13,-17.52 V 759.402 c 32.5,34.969 92,68.828 163.5,68.828 153.8,0 218.7,-125.55 218.7,-271.878 0,-148.543 -74.7,-275.204 -236.1,-275.204"
         style="fill:#ffffff;fill-opacity:1;fill-rule:nonzero;stroke:none"
         transform="matrix(0.13333333,0,0,-0.13333333,0,658.32)" />
      <path
         id="path27"
         d="m 10995.4,772.563 c -55.2,0 -116.9,-33.872 -152.7,-75.352 V 419.789 c 31.5,-49.027 84.4,-84.008 142.9,-84.008 117,0 167.9,98.211 167.9,215.168 0,133.172 -48.7,221.614 -158.1,221.614 z m -6.6,-491.415 c -59.5,0 -116.8,31.711 -149.3,70.981 l -1.1,-41.477 c 0,-15.312 -5.4,-19.672 -20.6,-19.672 h -27.1 c -11.9,0 -17.3,3.329 -17.3,16.418 v 732.672 c 0,13.1 2.2,17.45 14,19.67 l 38,5.47 h 1.1 3.2 c 8.7,0 13,-6.51 13,-17.52 V 759.402 c 32.5,34.969 92,68.828 163.5,68.828 153.8,0 218.7,-125.55 218.7,-271.878 0,-148.543 -74.7,-275.204 -236.1,-275.204"
         style="fill:#ffffff;fill-opacity:1;fill-rule:nonzero;stroke:none"
         transform="matrix(0.13333333,0,0,-0.13333333,0,658.32)" />
      <path
         id="path28"
         d="m 11713.4,291.012 h -33.6 c -11.9,0 -17.3,6.578 -17.3,19.668 l -1.1,38.218 c -49.8,-44.867 -108.2,-67.726 -170.1,-67.726 -54.1,0 -94.1,16.418 -122.3,43.707 -34.6,34.902 -48.7,87.32 -48.7,154.98 v 317.789 c 0,13.161 5.4,19.602 17.4,19.602 h 34.6 c 11.9,0 17.3,-6.441 17.3,-19.602 V 489.691 c 0,-53.461 8.7,-93.91 31.4,-120.082 16.2,-18.558 46.6,-31.718 87.6,-31.718 52,0 117.1,36.089 152.8,72.089 v 387.668 c 0,13.161 5.5,19.602 17.3,19.602 h 34.7 c 11.8,0 17.3,-6.441 17.3,-19.602 V 310.68 c 0,-13.09 -5.5,-19.668 -17.3,-19.668"
         style="fill:#ffffff;fill-opacity:1;fill-rule:nonzero;stroke:none"
         transform="matrix(0.13333333,0,0,-0.13333333,0,658.32)" />
      <path
         id="path29"
         d="m 11713.4,291.012 h -33.6 c -11.9,0 -17.3,6.578 -17.3,19.668 l -1.1,38.218 c -49.8,-44.867 -108.2,-67.726 -170.1,-67.726 -54.1,0 -94.1,16.418 -122.3,43.707 -34.6,34.902 -48.7,87.32 -48.7,154.98 v 317.789 c 0,13.161 5.4,19.602 17.4,19.602 h 34.6 c 11.9,0 17.3,-6.441 17.3,-19.602 V 489.691 c 0,-53.461 8.7,-93.91 31.4,-120.082 16.2,-18.558 46.6,-31.718 87.6,-31.718 52,0 117.1,36.089 152.8,72.089 v 387.668 c 0,13.161 5.5,19.602 17.3,19.602 h 34.7 c 11.8,0 17.3,-6.441 17.3,-19.602 V 310.68 c 0,-13.09 -5.5,-19.668 -17.3,-19.668"
         style="fill:#ffffff;fill-opacity:1;fill-rule:nonzero;stroke:none"
         transform="matrix(0.13333333,0,0,-0.13333333,0,658.32)" />
      <path
         id="path30"
         d="m 11964.6,281.191 c -54.1,0 -109.3,18.559 -137.5,32.758 -6.5,3.25 -9.8,5.473 -9.8,9.832 0,1.11 0,3.25 1.2,5.469 l 13,33.871 c 2.1,5.469 3.2,6.5 6.4,6.5 1.2,0 3.2,0 5.5,-1.031 36.8,-18.641 87.6,-32.828 124.4,-32.828 72.6,0 120.3,36.078 120.3,96.047 0,50.273 -36.8,76.453 -91,98.339 l -65,26.184 c -66,26.238 -111.5,67.727 -111.5,132.129 0,88.508 79.1,139.809 173.3,139.809 43.3,0 85.5,-7.61 130.9,-29.5 5.5,-2.149 8.8,-5.54 8.8,-8.79 0,-1.039 -1.1,-2.148 -1.1,-3.179 l -10.8,-30.621 c -2.2,-6.578 -5.4,-8.782 -8.7,-8.782 -2.2,0 -4.4,1.172 -7.6,2.204 -28.1,14.199 -76.9,26.179 -111.5,26.179 -63.9,0 -101.9,-33.801 -101.9,-78.531 0,-45.91 26.1,-65.578 75.8,-86.281 l 77,-32.758 c 61.6,-26.242 111.5,-69.949 111.5,-137.602 0,-91.687 -73.7,-159.418 -191.7,-159.418"
         style="fill:#ffffff;fill-opacity:1;fill-rule:nonzero;stroke:none"
         transform="matrix(0.13333333,0,0,-0.13333333,0,658.32)" />
      <path
         id="path31"
         d="m 11964.6,281.191 c -54.1,0 -109.3,18.559 -137.5,32.758 -6.5,3.25 -9.8,5.473 -9.8,9.832 0,1.11 0,3.25 1.2,5.469 l 13,33.871 c 2.1,5.469 3.2,6.5 6.4,6.5 1.2,0 3.2,0 5.5,-1.031 36.8,-18.641 87.6,-32.828 124.4,-32.828 72.6,0 120.3,36.078 120.3,96.047 0,50.273 -36.8,76.453 -91,98.339 l -65,26.184 c -66,26.238 -111.5,67.727 -111.5,132.129 0,88.508 79.1,139.809 173.3,139.809 43.3,0 85.5,-7.61 130.9,-29.5 5.5,-2.149 8.8,-5.54 8.8,-8.79 0,-1.039 -1.1,-2.148 -1.1,-3.179 l -10.8,-30.621 c -2.2,-6.578 -5.4,-8.782 -8.7,-8.782 -2.2,0 -4.4,1.172 -7.6,2.204 -28.1,14.199 -76.9,26.179 -111.5,26.179 -63.9,0 -101.9,-33.801 -101.9,-78.531 0,-45.91 26.1,-65.578 75.8,-86.281 l 77,-32.758 c 61.6,-26.242 111.5,-69.949 111.5,-137.602 0,-91.687 -73.7,-159.418 -191.7,-159.418"
         style="fill:#ffffff;fill-opacity:1;fill-rule:nonzero;stroke:none"
         transform="matrix(0.13333333,0,0,-0.13333333,0,658.32)" />
      <path
         id="path32"
         d="m 12302.5,291.012 h -34.6 c -11.9,0 -17.3,6.578 -17.3,19.668 v 486.968 c 0,13.161 5.4,19.602 17.3,19.602 h 34.6 c 11.9,0 17.4,-6.441 17.4,-19.602 V 310.68 c 0,-13.09 -5.5,-19.668 -17.4,-19.668 m -17.2,606.008 c -25,0 -44.5,17.531 -44.5,42.601 0,25.141 19.5,42.59 44.5,42.59 24.8,0 45.4,-17.449 45.4,-42.59 0,-25.07 -20.6,-42.601 -45.4,-42.601"
         style="fill:#ffffff;fill-opacity:1;fill-rule:nonzero;stroke:none"
         transform="matrix(0.13333333,0,0,-0.13333333,0,658.32)" />
      <path
         id="path33"
         d="m 12302.5,291.012 h -34.6 c -11.9,0 -17.3,6.578 -17.3,19.668 v 486.968 c 0,13.161 5.4,19.602 17.3,19.602 h 34.6 c 11.9,0 17.4,-6.441 17.4,-19.602 V 310.68 c 0,-13.09 -5.5,-19.668 -17.4,-19.668 z m -17.2,606.008 c -25,0 -44.5,17.531 -44.5,42.601 0,25.141 19.5,42.59 44.5,42.59 24.8,0 45.4,-17.449 45.4,-42.59 0,-25.07 -20.6,-42.601 -45.4,-42.601"
         style="fill:#ffffff;fill-opacity:1;fill-rule:nonzero;stroke:none"
         transform="matrix(0.13333333,0,0,-0.13333333,0,658.32)" />
      <path
         id="path34"
         d="m 12860.2,291.012 h -34.7 c -11.9,0 -17.3,6.578 -17.3,19.668 v 311.14 c 0,87.399 -20.6,151.809 -120.2,151.809 -54.2,0 -121.3,-31.649 -162.4,-69.887 V 310.68 c 0,-13.09 -5.5,-19.668 -17.4,-19.668 h -34.6 c -11.9,0 -17.3,6.578 -17.3,19.668 v 486.968 c 0,13.161 5.4,19.602 17.3,19.602 h 33.6 c 11.9,0 17.2,-6.441 17.2,-19.602 l 1.2,-37.117 c 49.7,44.739 119.2,67.731 180.8,67.731 126.7,0 171.1,-77.563 171.1,-196.61 V 310.68 c 0,-13.09 -5.4,-19.668 -17.3,-19.668"
         style="fill:#ffffff;fill-opacity:1;fill-rule:nonzero;stroke:none"
         transform="matrix(0.13333333,0,0,-0.13333333,0,658.32)" />
      <path
         id="path35"
         d="m 12860.2,291.012 h -34.7 c -11.9,0 -17.3,6.578 -17.3,19.668 v 311.14 c 0,87.399 -20.6,151.809 -120.2,151.809 -54.2,0 -121.3,-31.649 -162.4,-69.887 V 310.68 c 0,-13.09 -5.5,-19.668 -17.4,-19.668 h -34.6 c -11.9,0 -17.3,6.578 -17.3,19.668 v 486.968 c 0,13.161 5.4,19.602 17.3,19.602 h 33.6 c 11.9,0 17.2,-6.441 17.2,-19.602 l 1.2,-37.117 c 49.7,44.739 119.2,67.731 180.8,67.731 126.7,0 171.1,-77.563 171.1,-196.61 V 310.68 c 0,-13.09 -5.4,-19.668 -17.3,-19.668"
         style="fill:#ffffff;fill-opacity:1;fill-rule:nonzero;stroke:none"
         transform="matrix(0.13333333,0,0,-0.13333333,0,658.32)" />
      <path
         id="path36"
         d="m 13214.4,774.75 c -101.8,0 -158.1,-83.031 -167.9,-173.609 h 301 c 1.1,7.609 1.1,14.191 1.1,21.808 0,82.961 -43.2,151.801 -134.2,151.801 m 173.2,-222.781 h -95.3 -247.9 c 0,-115.789 57.3,-211.84 181.8,-211.84 46.6,0 103,10.941 135.4,25.141 3.3,1.109 5.4,2.21 7.6,2.21 5.4,0 9.7,-4.359 10.8,-9.832 l 5.4,-25.136 c 1.1,-3.262 1.1,-6.582 1.1,-8.731 0,-5.472 -3.3,-8.718 -10.8,-12.051 -43.4,-20.699 -110.4,-30.539 -155.9,-30.539 -165.8,0 -246.9,112.457 -246.9,274.11 0,151.719 92,272.98 243.6,272.98 127.8,0 201.4,-98.34 201.4,-226.101 v -20.641 c 0,-24.039 -3.2,-29.57 -30.3,-29.57"
         style="fill:#ffffff;fill-opacity:1;fill-rule:nonzero;stroke:none"
         transform="matrix(0.13333333,0,0,-0.13333333,0,658.32)" />
      <path
         id="path37"
         d="m 13214.4,774.75 c -101.8,0 -158.1,-83.031 -167.9,-173.609 h 301 c 1.1,7.609 1.1,14.191 1.1,21.808 0,82.961 -43.2,151.801 -134.2,151.801 z m 173.2,-222.781 h -343.2 c 0,-115.789 57.3,-211.84 181.8,-211.84 46.6,0 103,10.941 135.4,25.141 3.3,1.109 5.4,2.21 7.6,2.21 5.4,0 9.7,-4.359 10.8,-9.832 l 5.4,-25.136 c 1.1,-3.262 1.1,-6.582 1.1,-8.731 0,-5.472 -3.3,-8.718 -10.8,-12.051 -43.4,-20.699 -110.4,-30.539 -155.9,-30.539 -165.8,0 -246.9,112.457 -246.9,274.11 0,151.719 92,272.98 243.6,272.98 127.8,0 201.4,-98.34 201.4,-226.101 v -20.641 c 0,-24.039 -3.2,-29.57 -30.3,-29.57"
         style="fill:#ffffff;fill-opacity:1;fill-rule:nonzero;stroke:none"
         transform="matrix(0.13333333,0,0,-0.13333333,0,658.32)" />
      <path
         id="path38"
         d="m 13617.3,281.191 c -54.2,0 -109.4,18.559 -137.6,32.758 -6.5,3.25 -9.8,5.473 -9.8,9.832 0,1.11 0,3.25 1.2,5.469 l 12.9,33.871 c 2.2,5.469 3.3,6.5 6.5,6.5 1.1,0 3.3,0 5.5,-1.031 36.8,-18.641 87.6,-32.828 124.5,-32.828 72.6,0 120.2,36.078 120.2,96.047 0,50.273 -36.8,76.453 -91,98.339 l -64.9,26.184 c -66.1,26.238 -111.6,67.727 -111.6,132.129 0,88.508 79,139.809 173.3,139.809 43.3,0 85.6,-7.61 131,-29.5 5.4,-2.149 8.6,-5.54 8.6,-8.79 0,-1.039 -1.1,-2.148 -1.1,-3.179 l -10.8,-30.621 c -2.1,-6.578 -5.4,-8.782 -8.6,-8.782 -2.2,0 -4.3,1.172 -7.6,2.204 -28.2,14.199 -76.9,26.179 -111.5,26.179 -63.9,0 -101.8,-33.801 -101.8,-78.531 0,-45.91 26,-65.578 75.8,-86.281 l 76.8,-32.758 c 61.8,-26.242 111.5,-69.949 111.5,-137.602 0,-91.687 -73.6,-159.418 -191.5,-159.418"
         style="fill:#ffffff;fill-opacity:1;fill-rule:nonzero;stroke:none"
         transform="matrix(0.13333333,0,0,-0.13333333,0,658.32)" />
      <path
         id="path39"
         d="m 13617.3,281.191 c -54.2,0 -109.4,18.559 -137.6,32.758 -6.5,3.25 -9.8,5.473 -9.8,9.832 0,1.11 0,3.25 1.2,5.469 l 12.9,33.871 c 2.2,5.469 3.3,6.5 6.5,6.5 1.1,0 3.3,0 5.5,-1.031 36.8,-18.641 87.6,-32.828 124.5,-32.828 72.6,0 120.2,36.078 120.2,96.047 0,50.273 -36.8,76.453 -91,98.339 l -64.9,26.184 c -66.1,26.238 -111.6,67.727 -111.6,132.129 0,88.508 79,139.809 173.3,139.809 43.3,0 85.6,-7.61 131,-29.5 5.4,-2.149 8.6,-5.54 8.6,-8.79 0,-1.039 -1.1,-2.148 -1.1,-3.179 l -10.8,-30.621 c -2.1,-6.578 -5.4,-8.782 -8.6,-8.782 -2.2,0 -4.3,1.172 -7.6,2.204 -28.2,14.199 -76.9,26.179 -111.5,26.179 -63.9,0 -101.8,-33.801 -101.8,-78.531 0,-45.91 26,-65.578 75.8,-86.281 l 76.8,-32.758 c 61.8,-26.242 111.5,-69.949 111.5,-137.602 0,-91.687 -73.6,-159.418 -191.5,-159.418"
         style="fill:#ffffff;fill-opacity:1;fill-rule:nonzero;stroke:none"
         transform="matrix(0.13333333,0,0,-0.13333333,0,658.32)" />
      <path
         id="path40"
         d="m 14002.8,281.191 c -54.2,0 -109.4,18.559 -137.6,32.758 -6.4,3.25 -9.7,5.473 -9.7,9.832 0,1.11 0,3.25 1.1,5.469 l 12.9,33.871 c 2.2,5.469 3.3,6.5 6.6,6.5 1.1,0 3.2,0 5.4,-1.031 36.8,-18.641 87.6,-32.828 124.5,-32.828 72.6,0 120.2,36.078 120.2,96.047 0,50.273 -36.8,76.453 -91,98.339 l -64.9,26.184 c -66.1,26.238 -111.5,67.727 -111.5,132.129 0,88.508 78.9,139.809 173.2,139.809 43.3,0 85.6,-7.61 131,-29.5 5.4,-2.149 8.6,-5.54 8.6,-8.79 0,-1.039 -1,-2.148 -1,-3.179 l -10.8,-30.621 c -2.2,-6.578 -5.5,-8.782 -8.7,-8.782 -2.2,0 -4.3,1.172 -7.6,2.204 -28.2,14.199 -76.9,26.179 -111.5,26.179 -63.9,0 -101.8,-33.801 -101.8,-78.531 0,-45.91 26,-65.578 75.8,-86.281 l 76.8,-32.758 c 61.8,-26.242 111.6,-69.949 111.6,-137.602 0,-91.687 -73.7,-159.418 -191.6,-159.418"
         style="fill:#ffffff;fill-opacity:1;fill-rule:nonzero;stroke:none"
         transform="matrix(0.13333333,0,0,-0.13333333,0,658.32)" />
      <path
         id="path41"
         d="m 14002.8,281.191 c -54.2,0 -109.4,18.559 -137.6,32.758 -6.4,3.25 -9.7,5.473 -9.7,9.832 0,1.11 0,3.25 1.1,5.469 l 12.9,33.871 c 2.2,5.469 3.3,6.5 6.6,6.5 1.1,0 3.2,0 5.4,-1.031 36.8,-18.641 87.6,-32.828 124.5,-32.828 72.6,0 120.2,36.078 120.2,96.047 0,50.273 -36.8,76.453 -91,98.339 l -64.9,26.184 c -66.1,26.238 -111.5,67.727 -111.5,132.129 0,88.508 78.9,139.809 173.2,139.809 43.3,0 85.6,-7.61 131,-29.5 5.4,-2.149 8.6,-5.54 8.6,-8.79 0,-1.039 -1,-2.148 -1,-3.179 l -10.8,-30.621 c -2.2,-6.578 -5.5,-8.782 -8.7,-8.782 -2.2,0 -4.3,1.172 -7.6,2.204 -28.2,14.199 -76.9,26.179 -111.5,26.179 -63.9,0 -101.8,-33.801 -101.8,-78.531 0,-45.91 26,-65.578 75.8,-86.281 l 76.8,-32.758 c 61.8,-26.242 111.6,-69.949 111.6,-137.602 0,-91.687 -73.7,-159.418 -191.6,-159.418"
         style="fill:#ffffff;fill-opacity:1;fill-rule:nonzero;stroke:none"
         transform="matrix(0.13333333,0,0,-0.13333333,0,658.32)" />
      <path
         id="path42"
         d="m 14838.7,681.922 c -28.1,58.988 -86.7,91.75 -144,91.75 -93.1,0 -161.3,-84.141 -161.3,-223.891 0,-138.633 68.2,-209.621 145.1,-209.621 79,0 138.6,65.512 160.2,132.129 z m 102.9,-390.93 h -41.1 c -42.3,0 -60.6,36.078 -60.6,78.668 v 14.192 c -21.7,-53.532 -95.3,-102.704 -166.8,-102.704 -147.3,0 -211.1,128.883 -211.1,264.344 0,179.008 102.8,282.75 228.4,282.75 52,0 112.6,-21.812 148.3,-68.762 l 1.2,40.372 c 0,13.089 7.5,17.449 19.4,17.449 h 32.6 c 11.8,0 16.2,-6.512 16.2,-19.602 V 414.402 c 0,-30.55 0,-51.32 4.3,-60.043 4.3,-9.839 11.9,-13.097 22.7,-13.097 h 7.6 c 8.7,0 11.9,-2.211 11.9,-12.051 v -27.219 c 0,-8.781 -3.2,-11 -13,-11"
         style="fill:#ffffff;fill-opacity:1;fill-rule:nonzero;stroke:none"
         transform="matrix(0.13333333,0,0,-0.13333333,0,658.32)" />
      <path
         id="path43"
         d="m 14838.7,681.922 c -28.1,58.988 -86.7,91.75 -144,91.75 -93.1,0 -161.3,-84.141 -161.3,-223.891 0,-138.633 68.2,-209.621 145.1,-209.621 79,0 138.6,65.512 160.2,132.129 z m 102.9,-390.93 h -41.1 c -42.3,0 -60.6,36.078 -60.6,78.668 v 14.192 c -21.7,-53.532 -95.3,-102.704 -166.8,-102.704 -147.3,0 -211.1,128.883 -211.1,264.344 0,179.008 102.8,282.75 228.4,282.75 52,0 112.6,-21.812 148.3,-68.762 l 1.2,40.372 c 0,13.089 7.5,17.449 19.4,17.449 h 32.6 c 11.8,0 16.2,-6.512 16.2,-19.602 V 414.402 c 0,-30.55 0,-51.32 4.3,-60.043 4.3,-9.839 11.9,-13.097 22.7,-13.097 h 7.6 c 8.7,0 11.9,-2.211 11.9,-12.051 v -27.219 c 0,-8.781 -3.2,-11 -13,-11"
         style="fill:#ffffff;fill-opacity:1;fill-rule:nonzero;stroke:none"
         transform="matrix(0.13333333,0,0,-0.13333333,0,658.32)" />
      <path
         id="path44"
         d="m 15390,684.102 c -23.8,49.168 -82.3,89.546 -141.9,89.546 -102.9,0 -170,-80.828 -170,-218.347 0,-132.141 60.6,-219.539 159.2,-219.539 57.4,0 122.3,37.117 152.7,83.039 z m 56.2,-393.071 h -31.3 c -15.2,0 -20.6,4.36 -20.6,19.598 l -1.1,45.922 c -37.9,-45.922 -101.8,-75.36 -166.7,-75.36 -155.9,0 -219.9,129.93 -219.9,271.891 0,165.988 98.6,275.199 236.1,275.199 50.9,0 114.8,-24.031 147.3,-66.621 v 42.59 235.8 c 0,13.09 2.1,18.63 14,19.67 l 39,5.47 h 1.1 3.2 c 8.7,0 11.9,-6.51 11.9,-17.45 V 806.398 310.629 c 0,-11.981 -5.3,-19.598 -13,-19.598"
         style="fill:#ffffff;fill-opacity:1;fill-rule:nonzero;stroke:none"
         transform="matrix(0.13333333,0,0,-0.13333333,0,658.32)" />
      <path
         id="path45"
         d="m 15390,684.102 c -23.8,49.168 -82.3,89.546 -141.9,89.546 -102.9,0 -170,-80.828 -170,-218.347 0,-132.141 60.6,-219.539 159.2,-219.539 57.4,0 122.3,37.117 152.7,83.039 z m 56.2,-393.071 h -31.3 c -15.2,0 -20.6,4.36 -20.6,19.598 l -1.1,45.922 c -37.9,-45.922 -101.8,-75.36 -166.7,-75.36 -155.9,0 -219.9,129.93 -219.9,271.891 0,165.988 98.6,275.199 236.1,275.199 50.9,0 114.8,-24.031 147.3,-66.621 v 42.59 235.8 c 0,13.09 2.1,18.63 14,19.67 l 39,5.47 h 1.1 3.2 c 8.7,0 11.9,-6.51 11.9,-17.45 V 806.398 310.629 c 0,-11.981 -5.3,-19.598 -13,-19.598"
         style="fill:#ffffff;fill-opacity:1;fill-rule:nonzero;stroke:none"
         transform="matrix(0.13333333,0,0,-0.13333333,0,658.32)" />
      <path
         id="path46"
         d="M 15959.6,800.961 15785.2,306.23 C 15781,295.352 15774.4,291 15764.7,291 h -42.2 c -13,0 -19.5,5.469 -22.8,15.23 l -172.1,493.559 c -1.1,2.211 -1.1,3.391 -1.1,5.473 0,6.578 5.4,12.047 15.1,12.047 h 37.9 c 15.2,0 19.5,-3.329 22.8,-12.047 l 145,-432.34 h 2.2 L 15891.4,802 c 3.2,10.941 10.8,15.309 22.7,15.309 h 32.5 c 7.6,0 14,-3.329 14,-10.879 0,-2.211 0,-3.25 -1,-5.469"
         style="fill:#ffffff;fill-opacity:1;fill-rule:nonzero;stroke:none"
         transform="matrix(0.13333333,0,0,-0.13333333,0,658.32)" />
      <path
         id="path47"
         d="M 15959.6,800.961 15785.2,306.23 C 15781,295.352 15774.4,291 15764.7,291 h -42.2 c -13,0 -19.5,5.469 -22.8,15.23 l -172.1,493.559 c -1.1,2.211 -1.1,3.391 -1.1,5.473 0,6.578 5.4,12.047 15.1,12.047 h 37.9 c 15.2,0 19.5,-3.329 22.8,-12.047 l 145,-432.34 h 2.2 L 15891.4,802 c 3.2,10.941 10.8,15.309 22.7,15.309 h 32.5 c 7.6,0 14,-3.329 14,-10.879 0,-2.211 0,-3.25 -1,-5.469"
         style="fill:#ffffff;fill-opacity:1;fill-rule:nonzero;stroke:none"
         transform="matrix(0.13333333,0,0,-0.13333333,0,658.32)" />
      <path
         id="path48"
         d="m 16092.8,291.012 h -34.6 c -11.9,0 -17.3,6.578 -17.3,19.668 v 486.968 c 0,13.161 5.4,19.602 17.3,19.602 h 34.6 c 11.9,0 17.3,-6.441 17.3,-19.602 V 310.68 c 0,-13.09 -5.4,-19.668 -17.3,-19.668 m -17.3,606.008 c -24.9,0 -44.4,17.531 -44.4,42.601 0,25.141 19.5,42.59 44.4,42.59 25,0 45.5,-17.449 45.5,-42.59 0,-25.07 -20.5,-42.601 -45.5,-42.601"
         style="fill:#ffffff;fill-opacity:1;fill-rule:nonzero;stroke:none"
         transform="matrix(0.13333333,0,0,-0.13333333,0,658.32)" />
      <path
         id="path49"
         d="m 16092.8,291.012 h -34.6 c -11.9,0 -17.3,6.578 -17.3,19.668 v 486.968 c 0,13.161 5.4,19.602 17.3,19.602 h 34.6 c 11.9,0 17.3,-6.441 17.3,-19.602 V 310.68 c 0,-13.09 -5.4,-19.668 -17.3,-19.668 z m -17.3,606.008 c -24.9,0 -44.4,17.531 -44.4,42.601 0,25.141 19.5,42.59 44.4,42.59 25,0 45.5,-17.449 45.5,-42.59 0,-25.07 -20.5,-42.601 -45.5,-42.601"
         style="fill:#ffffff;fill-opacity:1;fill-rule:nonzero;stroke:none"
         transform="matrix(0.13333333,0,0,-0.13333333,0,658.32)" />
      <path
         id="path50"
         d="m 16357.1,281.191 c -54.1,0 -109.3,18.559 -137.5,32.758 -6.5,3.25 -9.8,5.473 -9.8,9.832 0,1.11 0,3.25 1.1,5.469 l 13,33.871 c 2.2,5.469 3.2,6.5 6.5,6.5 1.1,0 3.2,0 5.5,-1.031 36.7,-18.641 87.6,-32.828 124.4,-32.828 72.6,0 120.3,36.078 120.3,96.047 0,50.273 -36.9,76.453 -91,98.339 l -65,26.184 c -66.1,26.238 -111.5,67.727 -111.5,132.129 0,88.508 79,139.809 173.3,139.809 43.3,0 85.5,-7.61 130.9,-29.5 5.4,-2.149 8.7,-5.54 8.7,-8.79 0,-1.039 -1.1,-2.148 -1.1,-3.179 l -10.8,-30.621 c -2.2,-6.578 -5.4,-8.782 -8.7,-8.782 -2.2,0 -4.3,1.172 -7.5,2.204 -28.2,14.199 -77,26.179 -111.5,26.179 -63.9,0 -101.9,-33.801 -101.9,-78.531 0,-45.91 26.1,-65.578 75.8,-86.281 l 76.9,-32.758 c 61.7,-26.242 111.5,-69.949 111.5,-137.602 0,-91.687 -73.6,-159.418 -191.6,-159.418"
         style="fill:#ffffff;fill-opacity:1;fill-rule:nonzero;stroke:none"
         transform="matrix(0.13333333,0,0,-0.13333333,0,658.32)" />
      <path
         id="path51"
         d="m 16357.1,281.191 c -54.1,0 -109.3,18.559 -137.5,32.758 -6.5,3.25 -9.8,5.473 -9.8,9.832 0,1.11 0,3.25 1.1,5.469 l 13,33.871 c 2.2,5.469 3.2,6.5 6.5,6.5 1.1,0 3.2,0 5.5,-1.031 36.7,-18.641 87.6,-32.828 124.4,-32.828 72.6,0 120.3,36.078 120.3,96.047 0,50.273 -36.9,76.453 -91,98.339 l -65,26.184 c -66.1,26.238 -111.5,67.727 -111.5,132.129 0,88.508 79,139.809 173.3,139.809 43.3,0 85.5,-7.61 130.9,-29.5 5.4,-2.149 8.7,-5.54 8.7,-8.79 0,-1.039 -1.1,-2.148 -1.1,-3.179 l -10.8,-30.621 c -2.2,-6.578 -5.4,-8.782 -8.7,-8.782 -2.2,0 -4.3,1.172 -7.5,2.204 -28.2,14.199 -77,26.179 -111.5,26.179 -63.9,0 -101.9,-33.801 -101.9,-78.531 0,-45.91 26.1,-65.578 75.8,-86.281 l 76.9,-32.758 c 61.7,-26.242 111.5,-69.949 111.5,-137.602 0,-91.687 -73.6,-159.418 -191.6,-159.418"
         style="fill:#ffffff;fill-opacity:1;fill-rule:nonzero;stroke:none"
         transform="matrix(0.13333333,0,0,-0.13333333,0,658.32)" />
      <path
         id="path52"
         d="m 16845.5,774.75 c -101.8,0 -158.1,-83.031 -167.9,-173.609 h 301.1 c 1,7.609 1,14.191 1,21.808 0,82.961 -43.2,151.801 -134.2,151.801 m 173.1,-222.781 h -95.2 -247.9 c 0,-115.789 57.3,-211.84 181.8,-211.84 46.6,0 103,10.941 135.5,25.141 3.2,1.109 5.4,2.21 7.5,2.21 5.4,0 9.8,-4.359 10.8,-9.832 l 5.5,-25.136 c 1,-3.262 1,-6.582 1,-8.731 0,-5.472 -3.2,-8.718 -10.8,-12.051 -43.4,-20.699 -110.5,-30.539 -155.8,-30.539 -165.8,0 -247,112.457 -247,274.11 0,151.719 92.1,272.98 243.7,272.98 127.7,0 201.4,-98.34 201.4,-226.101 v -20.641 c 0,-24.039 -3.3,-29.57 -30.5,-29.57"
         style="fill:#ffffff;fill-opacity:1;fill-rule:nonzero;stroke:none"
         transform="matrix(0.13333333,0,0,-0.13333333,0,658.32)" />
      <path
         id="path53"
         d="m 16845.5,774.75 c -101.8,0 -158.1,-83.031 -167.9,-173.609 h 301.1 c 1,7.609 1,14.191 1,21.808 0,82.961 -43.2,151.801 -134.2,151.801 z m 173.1,-222.781 h -343.1 c 0,-115.789 57.3,-211.84 181.8,-211.84 46.6,0 103,10.941 135.5,25.141 3.2,1.109 5.4,2.21 7.5,2.21 5.4,0 9.8,-4.359 10.8,-9.832 l 5.5,-25.136 c 1,-3.262 1,-6.582 1,-8.731 0,-5.472 -3.2,-8.718 -10.8,-12.051 -43.4,-20.699 -110.5,-30.539 -155.8,-30.539 -165.8,0 -247,112.457 -247,274.11 0,151.719 92.1,272.98 243.7,272.98 127.7,0 201.4,-98.34 201.4,-226.101 v -20.641 c 0,-24.039 -3.3,-29.57 -30.5,-29.57"
         style="fill:#ffffff;fill-opacity:1;fill-rule:nonzero;stroke:none"
         transform="matrix(0.13333333,0,0,-0.13333333,0,658.32)" />
      <path
         id="path54"
         d="m 17363.1,776.941 c -1.1,-5.543 -4.3,-8.722 -8.6,-8.722 h -2.2 c -10.8,2.14 -22.8,4.363 -34.6,4.363 -39,0 -82.4,-29.5 -110.5,-73.273 V 310.672 c 0,-13.09 -5.4,-19.672 -17.3,-19.672 h -34.6 c -11.9,0 -17.4,6.582 -17.4,19.672 v 486.976 c 0,13.153 5.5,19.672 17.4,19.672 h 33.5 c 11.9,0 17.3,-6.519 17.3,-19.672 l 1.1,-38.226 c 21.7,32.82 67.1,68.828 121.3,68.828 7.6,0 20.5,-1.109 31.4,-3.25 6.5,-1.18 8.7,-5.539 8.7,-9.898 v -2.153 l -5.5,-36.008"
         style="fill:#ffffff;fill-opacity:1;fill-rule:nonzero;stroke:none"
         transform="matrix(0.13333333,0,0,-0.13333333,0,658.32)" />
      <path
         id="path55"
         d="m 17363.1,776.941 c -1.1,-5.543 -4.3,-8.722 -8.6,-8.722 h -2.2 c -10.8,2.14 -22.8,4.363 -34.6,4.363 -39,0 -82.4,-29.5 -110.5,-73.273 V 310.672 c 0,-13.09 -5.4,-19.672 -17.3,-19.672 h -34.6 c -11.9,0 -17.4,6.582 -17.4,19.672 v 486.976 c 0,13.153 5.5,19.672 17.4,19.672 h 33.5 c 11.9,0 17.3,-6.519 17.3,-19.672 l 1.1,-38.226 c 21.7,32.82 67.1,68.828 121.3,68.828 7.6,0 20.5,-1.109 31.4,-3.25 6.5,-1.18 8.7,-5.539 8.7,-9.898 v -2.153 l -5.5,-36.008"
         style="fill:#ffffff;fill-opacity:1;fill-rule:nonzero;stroke:none"
         transform="matrix(0.13333333,0,0,-0.13333333,0,658.32)" />
      <path
         id="path56"
         d="m 17544,281.191 c -54.1,0 -109.4,18.559 -137.5,32.758 -6.5,3.25 -9.8,5.473 -9.8,9.832 0,1.11 0,3.25 1.2,5.469 l 12.9,33.871 c 2.2,5.469 3.3,6.5 6.5,6.5 1.1,0 3.3,0 5.5,-1.031 36.8,-18.641 87.6,-32.828 124.5,-32.828 72.5,0 120.1,36.078 120.1,96.047 0,50.273 -36.7,76.453 -91,98.339 l -64.9,26.184 c -66,26.238 -111.5,67.727 -111.5,132.129 0,88.508 79,139.809 173.3,139.809 43.3,0 85.6,-7.61 130.9,-29.5 5.5,-2.149 8.7,-5.54 8.7,-8.79 0,-1.039 -1,-2.148 -1,-3.179 L 17701,756.18 c -2.1,-6.578 -5.4,-8.782 -8.6,-8.782 -2.2,0 -4.4,1.172 -7.7,2.204 -28.1,14.199 -76.8,26.179 -111.4,26.179 -63.9,0 -101.9,-33.801 -101.9,-78.531 0,-45.91 26.1,-65.578 75.9,-86.281 l 76.8,-32.758 c 61.7,-26.242 111.5,-69.949 111.5,-137.602 0,-91.687 -73.6,-159.418 -191.6,-159.418"
         style="fill:#ffffff;fill-opacity:1;fill-rule:nonzero;stroke:none"
         transform="matrix(0.13333333,0,0,-0.13333333,0,658.32)" />
      <path
         id="path57"
         d="m 17544,281.191 c -54.1,0 -109.4,18.559 -137.5,32.758 -6.5,3.25 -9.8,5.473 -9.8,9.832 0,1.11 0,3.25 1.2,5.469 l 12.9,33.871 c 2.2,5.469 3.3,6.5 6.5,6.5 1.1,0 3.3,0 5.5,-1.031 36.8,-18.641 87.6,-32.828 124.5,-32.828 72.5,0 120.1,36.078 120.1,96.047 0,50.273 -36.7,76.453 -91,98.339 l -64.9,26.184 c -66,26.238 -111.5,67.727 -111.5,132.129 0,88.508 79,139.809 173.3,139.809 43.3,0 85.6,-7.61 130.9,-29.5 5.5,-2.149 8.7,-5.54 8.7,-8.79 0,-1.039 -1,-2.148 -1,-3.179 L 17701,756.18 c -2.1,-6.578 -5.4,-8.782 -8.6,-8.782 -2.2,0 -4.4,1.172 -7.7,2.204 -28.1,14.199 -76.8,26.179 -111.4,26.179 -63.9,0 -101.9,-33.801 -101.9,-78.531 0,-45.91 26.1,-65.578 75.9,-86.281 l 76.8,-32.758 c 61.7,-26.242 111.5,-69.949 111.5,-137.602 0,-91.687 -73.6,-159.418 -191.6,-159.418"
         style="fill:#ffffff;fill-opacity:1;fill-rule:nonzero;stroke:none"
         transform="matrix(0.13333333,0,0,-0.13333333,0,658.32)" />
      <path
         id="path58"
         d="m 4927.49,2151.62 c -172.68,0 -348.97,59.23 -438.79,104.43 -20.69,10.48 -31.08,17.4 -31.08,31.35 0,3.55 0,10.47 3.43,17.4 l 41.38,108.16 c 7.05,17.32 10.49,20.86 20.79,20.86 3.43,0 10.39,0 17.26,-3.54 117.56,-59.14 279.93,-104.53 397.4,-104.53 231.51,0 383.49,114.99 383.49,306.63 0,160.28 -117.47,243.93 -290.24,313.55 l -207.28,83.65 c -210.72,83.65 -355.84,215.95 -355.84,421.53 0,282.29 252.2,446.03 552.82,446.03 138.07,0 272.89,-24.51 418.01,-94.12 17.26,-6.93 27.56,-17.5 27.56,-27.89 0,-3.46 -3.34,-7.01 -3.34,-10.47 l -34.61,-97.5 c -6.87,-20.97 -17.26,-27.89 -27.65,-27.89 -6.87,0 -13.83,3.46 -24.12,6.92 -89.82,45.38 -245.34,83.66 -355.85,83.66 -203.85,0 -324.75,-108.08 -324.75,-250.86 0,-146.34 82.86,-209.13 241.8,-275.28 l 245.24,-104.52 c 196.99,-83.55 355.93,-222.88 355.93,-438.84 0,-292.77 -235.02,-508.73 -611.56,-508.73"
         style="fill:#ffffff;fill-opacity:1;fill-rule:nonzero;stroke:none"
         transform="matrix(0.13333333,0,0,-0.13333333,0,658.32)" />
      <path
         id="path59"
         d="m 4927.49,2151.62 c -172.68,0 -348.97,59.23 -438.79,104.43 -20.69,10.48 -31.08,17.4 -31.08,31.35 0,3.55 0,10.47 3.43,17.4 l 41.38,108.16 c 7.05,17.32 10.49,20.86 20.79,20.86 3.43,0 10.39,0 17.26,-3.54 117.56,-59.14 279.93,-104.53 397.4,-104.53 231.51,0 383.49,114.99 383.49,306.63 0,160.28 -117.47,243.93 -290.24,313.55 l -207.28,83.65 c -210.72,83.65 -355.84,215.95 -355.84,421.53 0,282.29 252.2,446.03 552.82,446.03 138.07,0 272.89,-24.51 418.01,-94.12 17.26,-6.93 27.56,-17.5 27.56,-27.89 0,-3.46 -3.34,-7.01 -3.34,-10.47 l -34.61,-97.5 c -6.87,-20.97 -17.26,-27.89 -27.65,-27.89 -6.87,0 -13.83,3.46 -24.12,6.92 -89.82,45.38 -245.34,83.66 -355.85,83.66 -203.85,0 -324.75,-108.08 -324.75,-250.86 0,-146.34 82.86,-209.13 241.8,-275.28 l 245.24,-104.52 c 196.99,-83.55 355.93,-222.88 355.93,-438.84 0,-292.77 -235.02,-508.73 -611.56,-508.73"
         style="fill:#ffffff;fill-opacity:1;fill-rule:nonzero;stroke:none"
         transform="matrix(0.13333333,0,0,-0.13333333,0,658.32)" />
      <path
         id="path60"
         d="m 7059.29,2182.94 h -110.51 c -38.05,0 -55.31,20.77 -55.31,62.6 v 993.04 c 0,275.19 -69.12,484.31 -380.14,484.31 -172.68,0 -390.36,-101.05 -521.65,-222.98 V 2245.54 c 0,-41.83 -17.26,-62.6 -55.3,-62.6 h -110.51 c -38.05,0 -55.39,20.77 -55.39,62.6 v 2327.51 c 0,41.83 6.95,55.68 44.9,62.7 l 121,17.4 h 3.43 10.39 c 27.65,0 41.48,-20.95 41.48,-55.68 v -916.4 c 158.94,142.79 380.06,216.05 576.95,216.05 404.27,0 545.96,-247.4 545.96,-627.2 V 2245.54 c 0,-41.83 -17.26,-62.6 -55.3,-62.6"
         style="fill:#ffffff;fill-opacity:1;fill-rule:nonzero;stroke:none"
         transform="matrix(0.13333333,0,0,-0.13333333,0,658.32)" />
      <path
         id="path61"
         d="m 7059.29,2182.94 h -110.51 c -38.05,0 -55.31,20.77 -55.31,62.6 v 993.04 c 0,275.19 -69.12,484.31 -380.14,484.31 -172.68,0 -390.36,-101.05 -521.65,-222.98 V 2245.54 c 0,-41.83 -17.26,-62.6 -55.3,-62.6 h -110.51 c -38.05,0 -55.39,20.77 -55.39,62.6 v 2327.51 c 0,41.83 6.95,55.68 44.9,62.7 l 121,17.4 h 3.43 10.39 c 27.65,0 41.48,-20.95 41.48,-55.68 v -916.4 c 158.94,142.79 380.06,216.05 576.95,216.05 404.27,0 545.96,-247.4 545.96,-627.2 V 2245.54 c 0,-41.83 -17.26,-62.6 -55.3,-62.6"
         style="fill:#ffffff;fill-opacity:1;fill-rule:nonzero;stroke:none"
         transform="matrix(0.13333333,0,0,-0.13333333,0,658.32)" />
      <path
         id="path62"
         d="m 8503.57,3430.22 c -89.82,188.16 -276.42,292.68 -459.49,292.68 -297.19,0 -514.87,-268.26 -514.87,-714.21 0,-442.49 217.68,-669.01 463,-669.01 252.2,0 442.32,209.03 511.36,421.62 z m 328.18,-1247.27 h -131.2 c -134.82,0 -193.55,114.9 -193.55,250.85 v 45.39 c -69.04,-170.77 -304.07,-327.59 -532.13,-327.59 -469.88,0 -673.74,411.14 -673.74,843.15 0,571.42 328.29,902.38 729.13,902.38 165.81,0 359.27,-69.72 473.31,-219.52 l 3.43,128.94 c 0,41.73 24.21,55.68 62.17,55.68 h 103.64 c 38.04,0 51.86,-20.87 51.86,-62.7 V 2576.69 c 0,-97.5 0,-163.75 13.83,-191.73 13.83,-31.25 37.95,-41.82 72.56,-41.82 h 24.13 c 27.74,0 38.04,-6.83 38.04,-38.26 v -87.12 c 0,-27.88 -10.3,-34.81 -41.48,-34.81"
         style="fill:#ffffff;fill-opacity:1;fill-rule:nonzero;stroke:none"
         transform="matrix(0.13333333,0,0,-0.13333333,0,658.32)" />
      <path
         id="path63"
         d="m 8503.57,3430.22 c -89.82,188.16 -276.42,292.68 -459.49,292.68 -297.19,0 -514.87,-268.26 -514.87,-714.21 0,-442.49 217.68,-669.01 463,-669.01 252.2,0 442.32,209.03 511.36,421.62 z m 328.18,-1247.27 h -131.2 c -134.82,0 -193.55,114.9 -193.55,250.85 v 45.39 c -69.04,-170.77 -304.07,-327.59 -532.13,-327.59 -469.88,0 -673.74,411.14 -673.74,843.15 0,571.42 328.29,902.38 729.13,902.38 165.81,0 359.27,-69.72 473.31,-219.52 l 3.43,128.94 c 0,41.73 24.21,55.68 62.17,55.68 h 103.64 c 38.04,0 51.86,-20.87 51.86,-62.7 V 2576.69 c 0,-97.5 0,-163.75 13.83,-191.73 13.83,-31.25 37.95,-41.82 72.56,-41.82 h 24.13 c 27.74,0 38.04,-6.83 38.04,-38.26 v -87.12 c 0,-27.88 -10.3,-34.81 -41.48,-34.81"
         style="fill:#ffffff;fill-opacity:1;fill-rule:nonzero;stroke:none"
         transform="matrix(0.13333333,0,0,-0.13333333,0,658.32)" />
      <path
         id="path64"
         d="m 11084.5,3809.99 -466.4,-1578.32 c -10.3,-38.27 -38.1,-48.75 -69.1,-48.75 h -141.7 c -41.4,0 -62.1,17.4 -69.1,48.75 l -355.81,1275.15 -352.5,-1275.15 c -10.3,-38.27 -37.95,-48.75 -69.03,-48.75 H 9422.6 c -41.47,0 -62.16,17.4 -72.55,48.75 l -466.36,1574.85 c 0,6.93 -3.43,13.95 -3.43,17.41 0,24.42 17.17,38.36 48.25,38.36 h 120.9 c 48.44,0 65.69,-10.48 72.56,-38.36 l 380.06,-1376.3 h 6.96 l 383.49,1372.84 c 10.39,31.34 24.22,41.82 55.39,41.82 h 110.43 c 20.8,0 34.6,-7.02 41.5,-34.9 l 397.3,-1379.76 h 7 l 366.3,1365.82 c 10.3,34.9 34.4,48.84 72.4,48.84 h 103.7 c 24.1,0 41.4,-10.48 41.4,-31.44 0,-6.92 0,-13.94 -3.4,-20.86"
         style="fill:#ffffff;fill-opacity:1;fill-rule:nonzero;stroke:none"
         transform="matrix(0.13333333,0,0,-0.13333333,0,658.32)" />
      <path
         id="path65"
         d="m 11084.5,3809.99 -466.4,-1578.32 c -10.3,-38.27 -38.1,-48.75 -69.1,-48.75 h -141.7 c -41.4,0 -62.1,17.4 -69.1,48.75 l -355.81,1275.15 -352.5,-1275.15 c -10.3,-38.27 -37.95,-48.75 -69.03,-48.75 H 9422.6 c -41.47,0 -62.16,17.4 -72.55,48.75 l -466.36,1574.85 c 0,6.93 -3.43,13.95 -3.43,17.41 0,24.42 17.17,38.36 48.25,38.36 h 120.9 c 48.44,0 65.69,-10.48 72.56,-38.36 l 380.06,-1376.3 h 6.96 l 383.49,1372.84 c 10.39,31.34 24.22,41.82 55.39,41.82 h 110.43 c 20.8,0 34.6,-7.02 41.5,-34.9 l 397.3,-1379.76 h 7 l 366.3,1365.82 c 10.3,34.9 34.4,48.84 72.4,48.84 h 103.7 c 24.1,0 41.4,-10.48 41.4,-31.44 0,-6.92 0,-13.94 -3.4,-20.86"
         style="fill:#ffffff;fill-opacity:1;fill-rule:nonzero;stroke:none"
         transform="matrix(0.13333333,0,0,-0.13333333,0,658.32)" />
      <path
         id="path66"
         d="m 12376.8,3437.19 c -79.5,160.28 -273,285.66 -463,285.66 -345.5,0 -532.2,-282.2 -532.2,-679.31 0,-320.56 117.6,-679.48 497.7,-679.48 183.1,0 400.7,104.6 497.5,250.94 z m -7,-1853.59 c -117.4,-100.97 -293.6,-167.21 -525.1,-167.21 -152,0 -345.5,55.77 -480.2,121.92 -27.8,14.03 -34.6,27.88 -34.6,41.73 0,7.02 0,14.12 3.4,21.05 l 34.6,90.57 c 6.9,17.4 17.3,31.26 34.5,31.26 7,0 20.8,0 31.1,-6.92 131.3,-59.23 272.9,-111.53 411.2,-111.53 165.8,0 297.2,31.52 390.3,129.02 93.4,97.6 141.8,257.88 141.8,501.81 v 170.48 c -117.5,-142.78 -335.2,-222.88 -518.2,-222.88 -497.6,0 -704.9,393.74 -704.9,846.7 0,466.82 259,867.48 749.8,867.48 176.2,0 362.7,-69.62 473.3,-212.5 l 3.4,121.92 c 0,45.29 24.1,55.77 62.2,55.77 h 103.6 c 38.1,0 51.9,-20.96 51.9,-62.69 V 2618.46 2259.63 c 0,-306.72 -65.6,-533.15 -228.1,-676.03"
         style="fill:#ffffff;fill-opacity:1;fill-rule:nonzero;stroke:none"
         transform="matrix(0.13333333,0,0,-0.13333333,0,658.32)" />
      <path
         id="path67"
         d="m 12376.8,3437.19 c -79.5,160.28 -273,285.66 -463,285.66 -345.5,0 -532.2,-282.2 -532.2,-679.31 0,-320.56 117.6,-679.48 497.7,-679.48 183.1,0 400.7,104.6 497.5,250.94 z m -7,-1853.59 c -117.4,-100.97 -293.6,-167.21 -525.1,-167.21 -152,0 -345.5,55.77 -480.2,121.92 -27.8,14.03 -34.6,27.88 -34.6,41.73 0,7.02 0,14.12 3.4,21.05 l 34.6,90.57 c 6.9,17.4 17.3,31.26 34.5,31.26 7,0 20.8,0 31.1,-6.92 131.3,-59.23 272.9,-111.53 411.2,-111.53 165.8,0 297.2,31.52 390.3,129.02 93.4,97.6 141.8,257.88 141.8,501.81 v 170.48 c -117.5,-142.78 -335.2,-222.88 -518.2,-222.88 -497.6,0 -704.9,393.74 -704.9,846.7 0,466.82 259,867.48 749.8,867.48 176.2,0 362.7,-69.62 473.3,-212.5 l 3.4,121.92 c 0,45.29 24.1,55.77 62.2,55.77 h 103.6 c 38.1,0 51.9,-20.96 51.9,-62.69 V 2618.46 2259.63 c 0,-306.72 -65.6,-533.15 -228.1,-676.03"
         style="fill:#ffffff;fill-opacity:1;fill-rule:nonzero;stroke:none"
         transform="matrix(0.13333333,0,0,-0.13333333,0,658.32)" />
      <path
         id="path68"
         d="m 13050.5,2182.94 h -110.6 c -37.9,0 -55.3,20.77 -55.3,62.6 v 1553.98 c 0,41.83 17.4,62.69 55.3,62.69 h 110.6 c 38.1,0 55.2,-20.86 55.2,-62.69 V 2245.54 c 0,-41.83 -17.1,-62.6 -55.2,-62.6 m -55.3,1933.69 c -79.5,0 -141.6,55.67 -141.6,135.86 0,80.1 62.1,135.95 141.6,135.95 79.5,0 145.1,-55.85 145.1,-135.95 0,-80.19 -65.6,-135.86 -145.1,-135.86"
         style="fill:#ffffff;fill-opacity:1;fill-rule:nonzero;stroke:none"
         transform="matrix(0.13333333,0,0,-0.13333333,0,658.32)" />
      <path
         id="path69"
         d="m 13050.5,2182.94 h -110.6 c -37.9,0 -55.3,20.77 -55.3,62.6 v 1553.98 c 0,41.83 17.4,62.69 55.3,62.69 h 110.6 c 38.1,0 55.2,-20.86 55.2,-62.69 V 2245.54 c 0,-41.83 -17.1,-62.6 -55.2,-62.6 z m -55.3,1933.69 c -79.5,0 -141.6,55.67 -141.6,135.86 0,80.1 62.1,135.95 141.6,135.95 79.5,0 145.1,-55.85 145.1,-135.95 0,-80.19 -65.6,-135.86 -145.1,-135.86"
         style="fill:#ffffff;fill-opacity:1;fill-rule:nonzero;stroke:none"
         transform="matrix(0.13333333,0,0,-0.13333333,0,658.32)" />
      <path
         id="path70"
         d="m 14111.2,3719.4 c -176.3,0 -373.2,-107.98 -487.2,-240.47 v -884.88 c 100.2,-156.72 269.5,-268.26 456.1,-268.26 373.2,0 535.6,313.64 535.6,686.42 0,424.9 -155.6,707.19 -504.5,707.19 m -20.7,-1567.75 c -190.1,0 -373.2,100.97 -476.8,226.45 l -3.5,-132.49 c 0,-48.85 -17.2,-62.61 -65.6,-62.61 h -86.4 c -38.1,0 -55.3,10.39 -55.3,52.22 v 2337.81 c 0,41.73 6.8,55.76 44.9,62.69 l 121,17.41 h 3.4 10.3 c 27.7,0 41.5,-20.88 41.5,-55.77 v -919.78 c 103.6,111.44 293.8,219.6 521.8,219.6 490.6,0 698,-400.84 698,-867.57 0,-473.83 -238.6,-877.96 -753.3,-877.96"
         style="fill:#ffffff;fill-opacity:1;fill-rule:nonzero;stroke:none"
         transform="matrix(0.13333333,0,0,-0.13333333,0,658.32)" />
      <path
         id="path71"
         d="m 14111.2,3719.4 c -176.3,0 -373.2,-107.98 -487.2,-240.47 v -884.88 c 100.2,-156.72 269.5,-268.26 456.1,-268.26 373.2,0 535.6,313.64 535.6,686.42 0,424.9 -155.6,707.19 -504.5,707.19 z m -20.7,-1567.75 c -190.1,0 -373.2,100.97 -476.8,226.45 l -3.5,-132.49 c 0,-48.85 -17.2,-62.61 -65.6,-62.61 h -86.4 c -38.1,0 -55.3,10.39 -55.3,52.22 v 2337.81 c 0,41.73 6.8,55.76 44.9,62.69 l 121,17.41 h 3.4 10.3 c 27.7,0 41.5,-20.88 41.5,-55.77 v -919.78 c 103.6,111.44 293.8,219.6 521.8,219.6 490.6,0 698,-400.84 698,-867.57 0,-473.83 -238.6,-877.96 -753.3,-877.96"
         style="fill:#ffffff;fill-opacity:1;fill-rule:nonzero;stroke:none"
         transform="matrix(0.13333333,0,0,-0.13333333,0,658.32)" />
      <path
         id="path72"
         d="m 15769.7,3719.4 c -176.3,0 -373.2,-107.98 -487.2,-240.47 v -884.88 c 100.2,-156.72 269.5,-268.26 456.1,-268.26 373.2,0 535.6,313.64 535.6,686.42 0,424.9 -155.6,707.19 -504.5,707.19 M 15749,2151.65 c -190.1,0 -373.2,100.97 -476.8,226.45 l -3.5,-132.49 c 0,-48.85 -17.2,-62.61 -65.7,-62.61 h -86.3 c -38.1,0 -55.3,10.39 -55.3,52.22 v 2337.81 c 0,41.73 6.8,55.76 44.9,62.69 l 121,17.41 h 3.4 10.3 c 27.7,0 41.5,-20.88 41.5,-55.77 v -919.78 c 103.6,111.44 293.7,219.6 521.8,219.6 490.6,0 697.9,-400.84 697.9,-867.57 0,-473.83 -238.5,-877.96 -753.2,-877.96"
         style="fill:#ffffff;fill-opacity:1;fill-rule:nonzero;stroke:none"
         transform="matrix(0.13333333,0,0,-0.13333333,0,658.32)" />
      <path
         id="path73"
         d="m 15769.7,3719.4 c -176.3,0 -373.2,-107.98 -487.2,-240.47 v -884.88 c 100.2,-156.72 269.5,-268.26 456.1,-268.26 373.2,0 535.6,313.64 535.6,686.42 0,424.9 -155.6,707.19 -504.5,707.19 z M 15749,2151.65 c -190.1,0 -373.2,100.97 -476.8,226.45 l -3.5,-132.49 c 0,-48.85 -17.2,-62.61 -65.7,-62.61 h -86.3 c -38.1,0 -55.3,10.39 -55.3,52.22 v 2337.81 c 0,41.73 6.8,55.76 44.9,62.69 l 121,17.41 h 3.4 10.3 c 27.7,0 41.5,-20.88 41.5,-55.77 v -919.78 c 103.6,111.44 293.7,219.6 521.8,219.6 490.6,0 697.9,-400.84 697.9,-867.57 0,-473.83 -238.5,-877.96 -753.2,-877.96"
         style="fill:#ffffff;fill-opacity:1;fill-rule:nonzero;stroke:none"
         transform="matrix(0.13333333,0,0,-0.13333333,0,658.32)" />
      <path
         id="path74"
         d="m 17124.1,2151.62 c -172.7,0 -348.9,59.23 -438.8,104.43 -20.7,10.48 -31.1,17.4 -31.1,31.35 0,3.55 0,10.47 3.4,17.4 l 41.5,108.16 c 7,17.32 10.4,20.86 20.7,20.86 3.4,0 10.5,0 17.3,-3.54 117.5,-59.14 279.9,-104.53 397.4,-104.53 231.5,0 383.4,114.99 383.4,306.63 0,160.28 -117.4,243.93 -290.1,313.55 l -207.4,83.65 c -210.7,83.65 -355.8,215.95 -355.8,421.53 0,282.29 252.2,446.03 552.8,446.03 138.2,0 273,-24.51 418,-94.12 17.4,-6.93 27.7,-17.5 27.7,-27.89 0,-3.46 -3.5,-7.01 -3.5,-10.47 l -34.5,-97.5 c -6.9,-20.97 -17.3,-27.89 -27.7,-27.89 -6.8,0 -13.8,3.46 -24.2,6.92 -89.8,45.38 -245.2,83.66 -355.8,83.66 -203.8,0 -324.7,-108.08 -324.7,-250.86 0,-146.34 82.9,-209.13 241.8,-275.28 l 245.2,-104.52 c 197,-83.55 355.9,-222.88 355.9,-438.84 0,-292.77 -235,-508.73 -611.5,-508.73"
         style="fill:#ffffff;fill-opacity:1;fill-rule:nonzero;stroke:none"
         transform="matrix(0.13333333,0,0,-0.13333333,0,658.32)" />
      <path
         id="path75"
         d="m 17124.1,2151.62 c -172.7,0 -348.9,59.23 -438.8,104.43 -20.7,10.48 -31.1,17.4 -31.1,31.35 0,3.55 0,10.47 3.4,17.4 l 41.5,108.16 c 7,17.32 10.4,20.86 20.7,20.86 3.4,0 10.5,0 17.3,-3.54 117.5,-59.14 279.9,-104.53 397.4,-104.53 231.5,0 383.4,114.99 383.4,306.63 0,160.28 -117.4,243.93 -290.1,313.55 l -207.4,83.65 c -210.7,83.65 -355.8,215.95 -355.8,421.53 0,282.29 252.2,446.03 552.8,446.03 138.2,0 273,-24.51 418,-94.12 17.4,-6.93 27.7,-17.5 27.7,-27.89 0,-3.46 -3.5,-7.01 -3.5,-10.47 l -34.5,-97.5 c -6.9,-20.97 -17.3,-27.89 -27.7,-27.89 -6.8,0 -13.8,3.46 -24.2,6.92 -89.8,45.38 -245.2,83.66 -355.8,83.66 -203.8,0 -324.7,-108.08 -324.7,-250.86 0,-146.34 82.9,-209.13 241.8,-275.28 l 245.2,-104.52 c 197,-83.55 355.9,-222.88 355.9,-438.84 0,-292.77 -235,-508.73 -611.5,-508.73"
         style="fill:#ffffff;fill-opacity:1;fill-rule:nonzero;stroke:none"
         transform="matrix(0.13333333,0,0,-0.13333333,0,658.32)" />
      <path
         id="path76"
         d="m 2314.97,2326.07 v 1203.98 l 867.82,-601.95 z m 1360.52,2320.6 0.27,0.46 H 3656.07 2496.83 2219.06 1446.75 L 418.176,2979.51 C 148,2544.87 272.605,2191.68 694.227,2181.02 l -0.27,-0.46 h 19.695 1159.328 277.77 772.22 l 1028.57,1667.62 c 270.09,434.55 145.58,787.83 -276.05,798.49"
         style="fill:#ffffff;fill-opacity:1;fill-rule:nonzero;stroke:none"
         transform="matrix(0.13333333,0,0,-0.13333333,0,658.32)" />
    </g>
  </g>
</svg>
